<?xml version="1.0" encoding="utf-8"?><!DOCTYPE svg PUBLIC "-//W3C//DTD SVG 1.1//EN" "http://www.w3.org/Graphics/SVG/1.1/DTD/svg11.dtd"><svg version="1.1" xmlns="http://www.w3.org/2000/svg" xmlns:xlink="http://www.w3.org/1999/xlink" width="32" height="32" viewBox="0 0 32 32" data-tags="home,house"><g fill="#444" transform="scale(0.03125 0.03125)"><path d="M922.592 608.608l-90.88-90.912v474.304c0 17.696-14.272 32-31.968 32h-95.904-31.968c-17.696 0-31.968-14.304-31.968-32v-63.968-31.968-95.968-191.904c0-17.696-14.304-32-32-32h-191.84c-17.664 0-31.968 14.304-31.968 32v191.904 127.936 32l-0 31.968c0 17.696-14.336 32-31.968 32h-32-95.872c-17.664 0-32-14.304-32-32v-474.304l-90.88 90.912-101.376-101.44 506.944-507.168 5.056 5.056 5.056-5.056 250.72 250.848-0-186.432h127.904v314.4l128.32 128.352-101.408 101.44z" /></g></svg>