<?xml version="1.0" encoding="utf-8"?><!DOCTYPE svg PUBLIC "-//W3C//DTD SVG 1.1//EN" "http://www.w3.org/Graphics/SVG/1.1/DTD/svg11.dtd"><svg version="1.1" xmlns="http://www.w3.org/2000/svg" xmlns:xlink="http://www.w3.org/1999/xlink" width="20" height="20" viewBox="0 0 20 20" data-tags="shopping-cart"><g fill="#444" transform="scale(0.01953125 0.01953125)"><path d="M204.8 102.4h819.2l-153.6 460.8h-665.6c-28.277 0-51.2 22.923-51.2 51.2s22.923 51.2 51.2 51.2v0h665.6v102.4h-665.6c-84.831 0-153.6-68.769-153.6-153.6s68.769-153.6 153.6-153.6v0h16.896l-68.096-204.8-51.2-153.6h-102.4v-102.4h153.6c28.277 0 51.2 22.923 51.2 51.2v0 51.2zM256 1024c-56.554 0-102.4-45.846-102.4-102.4s45.846-102.4 102.4-102.4v0c56.554 0 102.4 45.846 102.4 102.4s-45.846 102.4-102.4 102.4v0zM768 1024c-56.554 0-102.4-45.846-102.4-102.4s45.846-102.4 102.4-102.4v0c56.554 0 102.4 45.846 102.4 102.4s-45.846 102.4-102.4 102.4v0z" /></g></svg>